<?xml version="1.0"?>
<svg width="1600" height="1300" xmlns="http://www.w3.org/2000/svg" xmlns:svg="http://www.w3.org/2000/svg">
 <g class="layer">
  <title>Layer 1</title>
  <path d="m698.92,316.88l-634.92,369.58c-6.17,3.59 -11.27,8.74 -14.8,14.95c-3.54,6.2 -5.36,13.23 -5.3,20.36c0.06,7.14 2,14.13 5.64,20.28c3.63,6.14 8.82,11.21 15.05,14.7l777.22,435.21c9.4,5.26 19.96,8.06 30.73,8.15c10.76,0.09 21.38,-2.54 30.86,-7.64l597.12,-321.35c7.61,-4.09 14,-10.15 18.5,-17.54c4.51,-7.38 6.96,-15.84 7.11,-24.49c0.16,-8.65 -2,-17.19 -6.24,-24.73c-4.24,-7.54 -10.41,-13.82 -17.88,-18.18l-803.09,-469.3z" fill="#EAECF0" id="svg_2"/>
  <path d="m260.21,573.89l-78.48,45.63c0,0 4.37,66.62 84.7,56.3l144.78,-79.35" fill="#A2A9B1" id="svg_3"/>
  <path d="m347.42,610.22c48.21,0 87.29,-19.34 87.29,-43.19c0,-23.84 -39.08,-43.18 -87.29,-43.18c-48.21,0 -87.29,19.34 -87.29,43.18c0,23.85 39.08,43.19 87.29,43.19z" fill="#00A7E2" id="svg_4"/>
  <path d="m434.68,452.03l0,117.41c0,0 -64.97,60.16 -174.55,0.98l0,-118.2" fill="#00A7E2" id="svg_5"/>
  <path d="m273.2,493.99c0,0 -14.45,-22.15 -28.08,-9.38c-13.62,12.77 -1.69,57.05 38.28,61.31l0,17.88c0,0 -50.21,-6.81 -57.02,-51.92c-6.81,-45.12 25.56,-52.09 41.7,-39.68" fill="#00A7E2" id="svg_6"/>
  <path d="m767.32,608.29l-75.33,36.28c-2.84,1.37 -5.25,3.48 -6.98,6.11c-1.73,2.63 -2.71,5.69 -2.84,8.83c-0.12,3.15 0.61,6.27 2.13,9.03c1.51,2.77 3.75,5.06 6.47,6.65l178.57,104.21c3.85,2.25 8.43,2.93 12.77,1.89c4.35,-1.04 8.12,-3.72 10.54,-7.48l43.31,-67.54" fill="#54595D" id="svg_7"/>
  <path d="m596.15,835.66l-296.41,-156.18l-45.28,29.55l483.36,264.77l66.55,-43.54" fill="#A2A9B1" id="svg_8"/>
  <path d="m851.66,983.69l-190.56,111.84c0,0 46.26,44.37 100.13,66.98l185.48,-112.79" fill="#C8CCD1" id="svg_9"/>
  <path d="m844.88,953.71l0,33.01l101.83,63.04l122.18,-74.7l0,-28.13" fill="#00A7E2" id="svg_10"/>
  <path d="m844.88,953.71l0,33.01l101.83,63.04l122.18,-74.7l0,-28.13" fill="#54595D" id="svg_11"/>
  <path d="m1068.89,946.93l-103.75,-62.09l-120.26,68.87l103.76,63.08l120.25,-69.86z" fill="#A2A9B1" id="svg_12"/>
  <path d="m970.41,969.23c-2.69,-3.25 -4.97,-6.8 -6.81,-10.6c-0.43,-2.52 5.71,-14.54 6.85,-14.18c4.12,2.07 7.98,4.62 11.5,7.6" fill="#72777D" id="svg_13"/>
  <path d="m971.51,949.53c0.24,0.95 -3.38,19.03 -1.1,19.7c4.83,0.45 9.7,0.45 14.53,0c0.91,-6.53 1.47,-13.11 1.65,-19.7" fill="#202122" id="svg_14"/>
  <path d="m988.64,926.44l-18.19,5.08c0,0.44 -2.99,16.83 -0.71,19.27c2.91,2.07 5.93,3.96 9.06,5.67c-0.02,5.73 0.31,11.46 0.98,17.14c1.08,0.21 2.19,0.21 3.27,0c0.75,-5.95 1.77,-18.04 1.77,-18.04c0,0 5.32,-1.85 5.63,-3.51c0.32,-1.65 -1.81,-25.61 -1.81,-25.61z" fill="#72777D" id="svg_15"/>
  <path d="m1025.69,1054.61c0,0 -7.87,-10.05 -8.5,-13.24c-0.63,-3.19 7.13,-18.16 8.58,-17.73c5.14,2.59 9.95,5.77 14.34,9.5" fill="#72777D" id="svg_16"/>
  <path d="m1027.07,1029.95c0.28,1.18 -4.25,23.64 -1.38,24.66c6.04,0.56 12.12,0.56 18.16,0c0.94,0 2.04,-24.66 2.04,-24.66" fill="#202122" id="svg_17"/>
  <path d="m1048.49,1001.34l-22.72,6.34c0,0.56 -3.74,21 -0.9,24.04c2.83,3.03 11.49,6.54 11.3,7.09c-0.03,7.14 0.38,14.27 1.22,21.35c1.3,0.24 2.63,0.24 3.94,0c0.9,-7.44 2.2,-22.53 2.2,-22.53c0,0 6.66,-2.33 7.01,-4.38c0.35,-2.04 -2.05,-31.91 -2.05,-31.91z" fill="#72777D" id="svg_18"/>
  <path d="m1177.17,433.67l-600.86,-346.37c-4.13,-2.39 -8.82,-3.64 -13.59,-3.63c-4.77,0.01 -9.45,1.27 -13.57,3.67c-4.13,2.4 -7.54,5.84 -9.91,9.99c-2.37,4.14 -3.6,8.84 -3.57,13.61l0,360.31c-0.03,3.99 1,7.91 2.97,11.38c1.98,3.46 4.84,6.33 8.29,8.32l640.48,369.93c2.21,1.28 4.72,1.96 7.27,1.96c2.56,0 5.07,-0.67 7.28,-1.95c2.21,-1.28 4.05,-3.12 5.32,-5.33c1.28,-2.22 1.95,-4.73 1.94,-7.29l0,-359.13c0,-11.25 -2.96,-22.3 -8.59,-32.04c-5.63,-9.74 -13.72,-17.82 -23.46,-23.43z" fill="#72777D" id="svg_19"/>
  <path d="m576.39,114.53l582.75,335.41c6.23,3.58 11.4,8.75 14.99,14.98c3.6,6.22 5.49,13.29 5.48,20.48l0,270.12c0,2.59 -0.68,5.13 -1.98,7.37c-1.29,2.24 -3.15,4.1 -5.38,5.39c-2.24,1.3 -4.77,1.99 -7.36,1.99c-2.58,0.01 -5.12,-0.66 -7.37,-1.94l-594.13,-341.2c-2.22,-1.27 -4.07,-3.11 -5.35,-5.32c-1.29,-2.22 -1.97,-4.73 -1.97,-7.29l0,-288.13c0.02,-2.38 0.66,-4.7 1.86,-6.75c1.19,-2.05 2.89,-3.76 4.94,-4.95c2.04,-1.19 4.36,-1.84 6.73,-1.87c2.37,-0.03 4.71,0.56 6.79,1.71z" fill="white" id="svg_20"/>
  <path d="m540.95,514.16c10.71,-1.77 134.78,75.92 134.78,75.92l0,30.38l-50.87,28.57l-138.33,-75.93l0,-35.69l54.42,-23.25z" fill="#00A7E2" id="svg_21"/>
  <path d="m540.95,514.16c10.71,-1.77 134.78,75.92 134.78,75.92l0,30.38l-50.87,28.57l-138.33,-75.93l0,-35.69l54.42,-23.25z" fill="#A2A9B1" id="svg_22"/>
  <path d="m479.58,532.27l138,74.5l50.5,-22.5l0,30l-50,28.5l-138.5,-74.5l0,-36z" fill="#72777D" id="svg_23"/>
  <path d="m457.08,589.57l-157.5,89.91c-1.64,0.95 -3.01,2.31 -3.96,3.95c-0.95,1.65 -1.45,3.51 -1.45,5.41c0,1.9 0.5,3.76 1.45,5.41c0.95,1.64 2.32,3 3.96,3.95l436.71,251.33c5.3,3.06 11.31,4.67 17.42,4.67c6.12,0 12.13,-1.61 17.42,-4.67l147.07,-84.99c1.76,-0.97 3.22,-2.4 4.24,-4.13c1.02,-1.73 1.55,-3.71 1.55,-5.72c0,-2.01 -0.53,-3.98 -1.55,-5.71c-1.02,-1.73 -2.48,-3.16 -4.24,-4.14l-441.79,-255.35c-2.95,-1.65 -6.29,-2.51 -9.67,-2.5c-3.39,0.02 -6.72,0.91 -9.66,2.58z" fill="#54595D" id="svg_24"/>
  <path d="m557.96,883.77c-0.34,-2.07 -1.18,-4.03 -2.45,-5.71c-1.27,-1.67 -2.93,-3.01 -4.84,-3.9l-23.31,-13.48l-36.02,-20.88l-43.04,-24.94l-45.79,-26.56l-44.3,-25.64l-38.51,-22.3l-28.47,-16.51l-14.96,-8.67c0,0.31 -0.51,0.31 -0.83,0.23c-1.8,-0.47 -3.69,-0.46 -5.48,0.03c-1.8,0.48 -3.44,1.43 -4.75,2.74c-1.32,1.32 -2.27,2.95 -2.76,4.75c-0.49,1.79 -0.51,3.69 -0.04,5.49c2.39,6.84 6.9,12.73 12.88,16.82c17.42,12.52 35.61,23.94 54.45,34.2l0,-6.74c-12.68,-6.93 -40,-22.61 -51.5,-34.43l5.47,3.19l15.08,8.82l22.68,13.28l28.31,16.55l31.98,18.67l33.62,19.71l33.31,19.5l31.03,18.12l26.74,15.76l20.47,11.82c6.26,3.67 13.03,8.63 20.32,10.05c1.37,0.1 2.74,-0.09 4.04,-0.55c1.29,-0.45 2.47,-1.17 3.48,-2.11c1,-0.93 1.81,-2.06 2.35,-3.32c0.55,-1.26 0.84,-2.62 0.84,-3.99z" fill="#00A7E2" id="svg_25"/>
  <path d="m557.96,883.77c-0.34,-2.07 -1.18,-4.03 -2.45,-5.71c-1.27,-1.67 -2.93,-3.01 -4.84,-3.9l-23.31,-13.48l-36.02,-20.88l-43.04,-24.94l-45.79,-26.56l-44.3,-25.64l-38.51,-22.3l-28.47,-16.51l-14.96,-8.67c0,0.31 -0.51,0.31 -0.83,0.23c-1.8,-0.47 -3.69,-0.46 -5.48,0.03c-1.8,0.48 -3.44,1.43 -4.75,2.74c-1.32,1.32 -2.27,2.95 -2.76,4.75c-0.49,1.79 -0.51,3.69 -0.04,5.49c2.39,6.84 6.9,12.73 12.88,16.82c17.42,12.52 35.61,23.94 54.45,34.2l0,-6.74c-12.68,-6.93 -40,-22.61 -51.5,-34.43l5.47,3.19l15.08,8.82l22.68,13.28l28.31,16.55l31.98,18.67l33.62,19.71l33.31,19.5l31.03,18.12l26.74,15.76l20.47,11.82c6.26,3.67 13.03,8.63 20.32,10.05c1.37,0.1 2.74,-0.09 4.04,-0.55c1.29,-0.45 2.47,-1.17 3.48,-2.11c1,-0.93 1.81,-2.06 2.35,-3.32c0.55,-1.26 0.84,-2.62 0.84,-3.99z" fill="#202122" id="svg_26"/>
  <path d="m821.49,624.03c6.88,-1.32 11.22,-8.77 9.71,-16.63c-1.51,-7.87 -8.31,-13.17 -15.19,-11.84c-6.87,1.32 -11.22,8.77 -9.71,16.63c1.51,7.87 8.32,13.17 15.19,11.84z" fill="white" id="svg_27"/>
  <path d="m821.02,304.87l169.83,98.5c1.74,1.01 3.17,2.47 4.14,4.23c0.97,1.77 1.45,3.76 1.37,5.78l-5.87,152.51c-0.07,1.91 -0.63,3.76 -1.63,5.39c-1,1.62 -2.4,2.96 -4.07,3.88c-1.66,0.93 -3.54,1.4 -5.45,1.39c-1.9,-0.02 -3.77,-0.53 -5.42,-1.48l-163.96,-94.28c-1.69,-0.97 -3.09,-2.37 -4.07,-4.06c-0.97,-1.69 -1.49,-3.61 -1.48,-5.56l0,-156.69c-0.01,-1.95 0.5,-3.86 1.47,-5.55c0.97,-1.69 2.37,-3.1 4.05,-4.07c1.69,-0.98 3.6,-1.49 5.55,-1.49c1.95,0 3.86,0.52 5.54,1.5z" fill="#F4AC45" id="svg_28"/>
  <path d="m881.86,331.62c0.01,-0.12 0.01,-0.24 0,-0.35l-0.63,-5.32c-6.58,-0.32 -10.32,1.26 -16.89,1.3c-3.26,3.33 -5.41,7.58 -6.19,12.17c0,3.27 0.4,7.88 4.41,7.41c0.63,3.03 2.41,7.01 5.99,6.18l0.47,-0.19c0.24,2.01 0.87,3.94 2.8,4.53c1.93,0.59 3.15,-0.47 3.93,-2.25c0.71,2.68 1.97,6.78 4.69,6.74c3.7,0 3.94,-5.48 2.99,-10.91c-0.08,-6.47 -0.61,-12.92 -1.57,-19.31z" fill="#EDB98A" id="svg_29"/>
  <path d="m863.51,337.65c-1.04,2.94 -1.5,6.06 -1.34,9.18c0,0.98 1.54,0.98 1.5,0c-0.15,-2.99 0.29,-5.97 1.3,-8.79c0.31,-0.9 -1.15,-1.3 -1.46,-0.39z" fill="black" id="svg_30"/>
  <path d="m869.02,340.64l-0.63,12.65c0,0.98 1.46,0.98 1.5,0l0.63,-12.65c0,-0.94 -1.42,-0.94 -1.5,0z" fill="black" id="svg_31"/>
  <path d="m874.46,338.83l0,16.74c0,0.2 0.07,0.39 0.21,0.54c0.14,0.14 0.34,0.21 0.53,0.21c0.2,0 0.39,-0.07 0.53,-0.21c0.14,-0.15 0.22,-0.34 0.22,-0.54l0,-16.74c0,-0.2 -0.08,-0.39 -0.22,-0.53c-0.14,-0.14 -0.33,-0.22 -0.53,-0.22c-0.19,0 -0.39,0.08 -0.53,0.22c-0.14,0.14 -0.21,0.33 -0.21,0.53z" fill="black" id="svg_32"/>
  <path d="m881.15,325.95c4.89,5.14 7.83,11.83 8.31,18.91l-7.13,-4.49l-1.18,-14.42z" fill="#EDB98A" id="svg_33"/>
  <path d="m947.38,361.64c0,0 -5.28,0.95 -5.4,0.87c-4.57,2.88 -16.18,8.83 -21.02,11.15c-2.88,1.38 -10.01,4.37 -8.43,8.71c0.83,2.32 3.15,2.72 6.14,2.05c-0.21,0.61 -0.2,1.29 0.03,1.9c0.23,0.61 0.66,1.12 1.23,1.45c0.93,0.43 1.96,0.6 2.98,0.49c1.02,-0.11 1.99,-0.5 2.81,-1.13c0.15,0.74 0.56,1.39 1.14,1.86c2.48,2.12 7.21,-0.24 9.92,-1.5c-0.04,0.5 -0.04,1 0,1.5c0,1.57 1.58,3.11 3.04,2.32c6.97,-3.7 17.91,-17.22 21.1,-23.64c-6.61,-2.52 -7.05,-3.27 -13.54,-6.03z" fill="#EDB98A" id="svg_34"/>
  <path d="m942.65,380.67c-1.82,2.55 -4,4.84 -6.46,6.78c-0.7,0.55 0.28,1.5 0.99,0.98c2.55,-2.02 4.8,-4.39 6.69,-7.05c0.48,-0.71 -0.71,-1.42 -1.22,-0.71z" fill="black" id="svg_35"/>
  <path d="m938.52,377.17c-4.02,3.2 -8.11,6.3 -12.29,9.3c-0.71,0.51 0,1.69 0.71,1.18c4.38,-3.08 8.57,-6.22 12.56,-9.42c0.67,-0.63 -0.31,-1.61 -0.98,-1.06z" fill="black" id="svg_36"/>
  <path d="m932.02,375.43c-4.29,3.03 -8.85,5.67 -13.62,7.88c-0.79,0.4 0,1.58 0.71,1.19c4.77,-2.22 9.32,-4.85 13.62,-7.88c0.79,-0.52 0,-1.7 -0.71,-1.19z" fill="black" id="svg_37"/>
  <path d="m941.98,362.47c0,0 -6.65,-4.88 -17.87,2.6l9.41,5.87" fill="#EDB98A" id="svg_38"/>
  <path d="m1088.81,622.87c-0.08,-0.28 -0.22,-0.54 -0.41,-0.75c-0.18,-0.22 -0.41,-0.4 -0.67,-0.53c-0.26,-0.12 -0.54,-0.19 -0.83,-0.21c-0.29,-0.01 -0.58,0.04 -0.84,0.14c0.11,-1.31 0.11,-2.62 0,-3.93c0,-1.86 -0.36,-4.5 -2.37,-5.28c-0.58,-0.22 -1.22,-0.24 -1.81,-0.06c-0.6,0.17 -1.12,0.54 -1.49,1.04c-0.23,-1.21 -0.56,-2.39 -0.99,-3.54c-0.13,-0.44 -0.4,-0.81 -0.76,-1.08c-0.36,-0.27 -0.8,-0.42 -1.25,-0.42c-2.24,0 -3.38,1.81 -3.93,3.94c0,-0.2 -0.83,-0.95 -1.03,-1.07c-0.37,-0.26 -0.8,-0.41 -1.26,-0.43c-0.84,-0.05 -1.68,0.2 -2.36,0.71c-0.65,0.64 -1.04,1.49 -1.1,2.4c-0.18,1.51 -0.18,3.03 0,4.53c0,1.86 0.39,3.67 0.51,5.52c0.12,1.85 0,2.6 0,3.94c-1.73,-3.35 -4.17,-7.53 -7.01,-5.56c-2.83,1.97 -0.35,4.65 0.43,6.51c1.63,3.67 3.55,7.2 5.75,10.55c-0.3,1.66 -0.7,3.29 -1.22,4.89c5.27,2.15 10.36,4.71 15.24,7.64c1.56,-5.23 3.44,-10.36 5.63,-15.36c2.37,-4.12 3,-9.01 1.77,-13.59z" fill="#D08B5B" id="svg_39"/>
  <path d="m1073.06,612.15c-0.16,5.09 -0.43,10.18 -0.82,15.25c0,0.43 0.66,0.43 0.66,0c0.4,-5.07 0.67,-10.16 0.83,-15.25c0.04,-0.48 -0.67,-0.48 -0.67,0z" fill="black" id="svg_40"/>
  <path d="m1079.91,613.45c-0.44,4.59 -0.99,9.17 -1.65,13.71c0,0.43 0.59,0.63 0.67,0c0.68,-4.62 1.25,-9.26 1.69,-13.91c0,-0.23 -0.67,-0.23 -0.71,0.2z" fill="black" id="svg_41"/>
  <path d="m1085.9,621.96c-0.34,3.2 -0.84,6.38 -1.5,9.53c0,0.44 0.59,0.63 0.67,0c0.66,-3.2 1.16,-6.43 1.5,-9.69c0.04,-0.28 -0.63,-0.28 -0.67,0.16z" fill="black" id="svg_42"/>
  <path d="m930.25,622.08c-0.47,-1.07 -0.95,-2.13 -1.38,-3.23c-0.25,-0.57 -0.34,-1.2 -0.27,-1.82c0.34,-1.66 0.58,-3.35 0.7,-5.04c-0.1,-5.4 -1.18,-10.74 -3.18,-15.76c-0.25,-0.8 -0.68,-1.53 -1.26,-2.13c-0.58,-0.61 -1.29,-1.07 -2.07,-1.35c-0.79,-0.28 -1.63,-0.38 -2.46,-0.28c-0.83,0.1 -1.63,0.39 -2.33,0.84l-1.45,-2.64c-2.72,-4.8 -5.63,-13.08 -11.82,-13.71c-0.47,0 -0.94,0.1 -1.37,0.32c-0.43,0.21 -0.79,0.52 -1.07,0.91c-0.28,0.39 -0.46,0.84 -0.53,1.31c-0.07,0.47 -0.02,0.95 0.14,1.4c1.18,3.12 2.4,6.19 3.66,9.22c-0.26,-0.28 -0.58,-0.5 -0.94,-0.66c-0.36,-0.15 -0.74,-0.23 -1.13,-0.23c-0.38,0 -0.77,0.08 -1.12,0.23c-0.36,0.16 -0.68,0.38 -0.94,0.66c-0.73,0.74 -1.21,1.68 -1.39,2.71c-0.17,1.02 -0.03,2.07 0.4,3.01l-0.75,0c-0.66,-0.34 -1.38,-0.53 -2.12,-0.56c-0.59,0.04 -1.17,0.2 -1.69,0.48c-0.53,0.28 -0.98,0.67 -1.34,1.14c-0.41,0.56 -0.68,1.21 -0.79,1.89c-0.11,0.69 -0.06,1.39 0.16,2.05l-0.52,0c-0.59,0.22 -1.12,0.58 -1.54,1.04c-0.43,0.47 -0.73,1.03 -0.9,1.64c-0.21,0.83 -0.21,1.69 0,2.52c-0.31,3.07 15.75,18.12 15.75,18.12l9.53,10.45l15.99,-7.61c0.23,-0.55 -1.77,-4.49 -1.97,-4.92z" fill="#D08B5B" id="svg_43"/>
  <path d="m1038.65,767.15c-28.39,-48.54 -55.13,-1.11 -55.13,-1.11c-11.01,15.07 -19.58,31.79 -25.39,49.53c-6.54,22.3 -6.5,94.56 -3.27,116.07c11.81,4.57 38.23,3.19 50.56,-0.31l0,-86.68c0.04,-0.25 0.17,-0.46 0.36,-0.62c0.19,-0.16 0.43,-0.24 0.68,-0.24c0.25,0 0.49,0.08 0.68,0.24c0.19,0.16 0.32,0.37 0.36,0.62l0.59,172.14c20.73,0.76 41.41,-2.64 60.8,-10.01c0,0 -3.55,-193.97 -30.24,-239.63z" fill="white" id="svg_44"/>
  <path d="m930.45,617.23c-8.55,2.09 -14.38,6.58 -21.78,11.31c2.72,9.53 32.49,84 69.93,99.76l2.99,-52.99c0,0 -16.57,-1.58 -51.14,-58.08z" fill="#00A7E2" id="svg_45"/>
  <path d="m1061.45,640.36c-1.17,9.22 -4.38,18.06 -9.4,25.88c-5.02,7.82 -11.73,14.42 -19.62,19.31l5.08,48.66c22.72,-14.62 46.66,-68.95 50.16,-83.14c-3.45,-3.42 -7.54,-6.13 -12.04,-7.97c-4.5,-1.84 -9.32,-2.77 -14.18,-2.74z" fill="#00A7E2" id="svg_46"/>
  <path d="m974.35,731.29l5,43.62c0,0 35.91,13.59 62.49,0l0,-44.21" fill="#00A7E2" id="svg_47"/>
  <path d="m1058.73,718.76c-0.72,-2.45 -1.93,-4.74 -3.54,-6.73c-2.51,-2.92 -5.25,-5.64 -8.19,-8.12c-0.73,-0.57 -1.29,-1.32 -1.66,-2.17c-1.22,-3.7 3.11,-9.37 2.52,-13.9c-0.9,-6.7 -5.16,-8.95 -9.33,-13.36c-2.26,-2.26 -3.74,-5.19 -4.21,-8.35c-2.4,-4.83 -4.25,-9.9 -5.51,-15.13c-3.04,-8.55 -7.88,-18.01 -17.05,-21.12c-5.08,-1.63 -10.51,-1.79 -15.67,-0.46c-5.16,1.32 -9.84,4.08 -13.51,7.94c-6.3,7.21 -5.08,17.03 -5.79,26.05c0.41,0.82 0.69,1.69 0.83,2.6c1.22,8.75 -10.28,9.14 -11.34,16.07c-0.14,1.32 -0.08,2.65 0.19,3.94c0.9,4.98 3.04,9.64 6.23,13.56c7.87,10.64 -10.44,16.11 -10.36,25.96c0.22,3.55 1.38,6.98 3.35,9.94c1.97,2.96 4.68,5.35 7.87,6.92c15.54,7.73 33.29,9.75 50.17,5.72c12.6,-2.88 39.33,-13.36 35,-29.36zm-70.09,-16.23c0,-0.19 0,-0.43 0,-0.63l0.71,0l-0.71,0.63z" fill="black" id="svg_48"/>
  <path d="m1005.42,844.57l-39.93,-8.91l37.96,29.63l1.97,-20.72z" fill="black" id="svg_49"/>
  <path d="m911.15,599.62c-3.13,-6.18 -5.76,-12.59 -7.87,-19.19c-0.32,-1.02 -1.97,-0.59 -1.62,0.43c2.1,6.77 4.73,13.36 7.88,19.7c0.63,0.87 2.09,0 1.61,-0.94z" fill="black" id="svg_50"/>
  <path d="m904.89,603.56c-1.55,-2.66 -2.95,-5.41 -4.17,-8.24c-0.44,-0.98 -1.89,0 -1.46,0.87c1.23,2.83 2.62,5.58 4.17,8.23c0.12,0.2 0.31,0.34 0.52,0.39c0.22,0.06 0.45,0.03 0.65,-0.09c0.19,-0.11 0.33,-0.3 0.38,-0.52c0.06,-0.22 0.03,-0.45 -0.09,-0.64z" fill="black" id="svg_51"/>
  <path d="m898.83,607.93c-1.74,-2.25 -3.07,-4.78 -3.94,-7.48c-0.31,-1.03 -1.97,-0.59 -1.61,0.43c0.85,2.83 2.18,5.5 3.93,7.88c0.87,0.9 2.29,0.04 1.62,-0.83z" fill="black" id="svg_52"/>
  <path d="m923.87,603.01c-1.63,-3.31 -3.12,-6.69 -4.49,-10.13c-0.39,-0.98 -2.05,-0.55 -1.61,0.43c1.42,3.58 2.96,7.08 4.64,10.53c0.48,1.02 1.93,0.15 1.46,-0.83z" fill="black" id="svg_53"/>
  <path d="m549.22,299.04c0.24,-0.41 0.36,-0.87 0.35,-1.34c0.02,-2.33 -0.44,-4.64 -1.36,-6.79c-0.91,-2.14 -2.26,-4.07 -3.96,-5.66c-0.66,-0.6 -1.45,-1.04 -2.31,-1.29c-0.86,-0.25 -1.76,-0.29 -2.64,-0.13c-0.88,0.16 -1.71,0.52 -2.43,1.05c-0.72,0.53 -1.3,1.22 -1.71,2.02c-3.7,7.61 4.76,15.21 11.54,16.12c1.89,0.23 2.63,-1.34 2.32,-2.84c0.15,-0.36 0.22,-0.75 0.2,-1.14z" fill="#CA054D" id="svg_54"/>
  <path d="m542.48,430.47l-13.62,-7.6l11.34,31.05l2.28,-23.45z" fill="#202122" id="svg_55"/>
  <path d="m694.47,732.83l-44.89,26.59l33.32,19.35c9.41,-5.48 36.34,-21.39 45,-26.52l-33.43,-19.42z" fill="white" id="svg_56"/>
  <path d="m645.29,704.3l-44.89,26.6l42.18,24.51c7.36,-4.26 34.57,-20.33 45.04,-26.52l-42.33,-24.59z" fill="white" id="svg_57"/>
  <path d="m466.69,600.52l-45.6,26.21l40.56,23.64c6.42,-3.71 33.94,-19.98 45.04,-26.52l-40,-23.33z" fill="white" id="svg_58"/>
  <path d="m562.72,656.31l-44.88,26.6l33.31,19.35c7.87,-4.58 34.92,-20.57 45.04,-26.52l-33.47,-19.43z" fill="white" id="svg_59"/>
  <path d="m513.54,627.75l-44.88,26.6l42.17,24.5c4.96,-2.83 33.19,-19.7 45.04,-26.51l-42.33,-24.59z" fill="white" id="svg_60"/>
  <path d="m734.75,756.47l-44.89,26.59l31.86,18.52c9.57,-5.59 36.54,-21.51 45,-26.51l-31.97,-18.6z" fill="white" id="svg_61"/>
  <path d="m603,679.72l-44.88,26.59l35.43,20.49c8.31,-4.8 35.44,-20.76 45.05,-26.51l-35.6,-20.57z" fill="white" id="svg_62"/>
  <path d="m773.62,778.85l-44.85,26.63l42.17,24.51c8.82,-5.12 35.75,-21.04 45,-26.52l-42.32,-24.62z" fill="white" id="svg_63"/>
  <path d="m822.8,807.45l-44.85,26.6l75.68,43.97l45.55,-26.2l-76.38,-44.37z" fill="white" id="svg_64"/>
  <path d="m415.3,634.33l-45.59,26.2l59.06,34.24c7.87,-4.49 34.81,-20.49 45.04,-26.52l-58.51,-33.92z" fill="white" id="svg_65"/>
  <path d="m529.69,700.96l-45.05,26.59l33.31,19.35c8.9,-5.21 35.84,-21.08 45.01,-26.52l-33.27,-19.42z" fill="white" id="svg_66"/>
  <path d="m612.26,748.94l-44.93,26.6l42.17,24.51c8.47,-4.93 35.44,-20.85 45.05,-26.52l-42.29,-24.59z" fill="white" id="svg_67"/>
  <path d="m570.01,724.36l-44.89,26.59l35.44,20.49c9.25,-5.4 36.18,-21.31 45,-26.51l-35.55,-20.57z" fill="white" id="svg_68"/>
  <path d="m661.44,777.51l-44.89,26.59l33.47,19.35c10.27,-6.03 37.4,-22.03 45,-26.52l-33.58,-19.42z" fill="white" id="svg_69"/>
  <path d="m701.76,800.91l-44.89,26.48l31.85,18.52c10.48,-6.11 37.65,-22.14 45.01,-26.52l-31.97,-18.48z" fill="white" id="svg_70"/>
  <path d="m480.71,672.39l-44.89,26.6l42.17,24.5c6.69,-3.94 34.1,-20.05 45.04,-26.51l-42.32,-24.59z" fill="white" id="svg_71"/>
  <path d="m740.58,823.45l-44.89,26.6l42.21,24.62c9.77,-5.67 36.7,-21.63 45.01,-26.52l-42.33,-24.7z" fill="white" id="svg_72"/>
  <path d="m744.91,878.69l57.29,33.29l45.6,-26.2l-58.04,-33.69l-44.85,26.6z" fill="white" id="svg_73"/>
  <path d="m711.36,874.12l-33.39,19.86l38.71,22.41l33.9,-19.46l-39.22,-22.81z" fill="white" id="svg_74"/>
  <path d="m724.67,921.04l32.92,19.07l33.94,-19.38l-33.51,-19.5l-33.35,19.81z" fill="white" id="svg_75"/>
  <path d="m359.04,669.4l-34.93,19.42l39.65,22.97l34.3,-19.7l-39.02,-22.69z" fill="white" id="svg_76"/>
  <path d="m405.46,696.39l-33.71,20.01l42.33,24.55l34.26,-19.66l-42.88,-24.9z" fill="white" id="svg_77"/>
  <path d="m455.78,725.62l-33.66,19.98l247.78,143.69l33.98,-19.51l-248.1,-144.16z" fill="white" id="svg_78"/>
  <path d="m623.45,310.19c23.22,-0.66 41.16,-32.05 40.09,-70.11c-1.08,-38.07 -20.77,-68.39 -43.99,-67.74c-23.21,0.66 -41.16,32.05 -40.08,70.12c1.07,38.06 20.76,68.38 43.98,67.73z" fill="#EAECF0" id="svg_79"/>
  <path d="m654.49,233.36c3.14,-34.91 -13.14,-64.9 -36.37,-66.99c-23.22,-2.09 -44.6,24.51 -47.74,59.41c-3.14,34.91 13.15,64.9 36.37,66.99c23.23,2.09 44.6,-24.51 47.74,-59.41z" fill="#92BFB1" id="svg_80"/>
  <path d="m628.26,224.07c0.95,-10.12 -5.7,-19.01 -14.83,-19.87c-9.14,-0.85 -17.31,6.66 -18.26,16.78c-0.94,10.12 5.7,19.01 14.84,19.86c9.14,0.86 17.31,-6.65 18.25,-16.77z" fill="white" id="svg_81"/>
  <path d="m575.64,262.91c0,0 9.84,-21.79 27.32,-19.03c17.49,2.75 28.59,11.82 35.8,36.44c-4.21,6.16 -10.29,10.79 -17.34,13.22c-7.05,2.43 -14.7,2.52 -21.8,0.26c-6.22,-2.8 -11.65,-7.08 -15.83,-12.47c-4.18,-5.38 -6.98,-11.71 -8.15,-18.42z" fill="white" id="svg_82"/>
  <path d="m666.59,249.04c-0.09,-0.25 -0.21,-0.49 -0.35,-0.71c0.53,-0.51 0.95,-1.12 1.22,-1.8c0.27,-0.68 0.39,-1.41 0.36,-2.14c-0.06,-0.49 -0.21,-0.96 -0.46,-1.39c-0.24,-0.43 -0.57,-0.8 -0.96,-1.09c0.37,-0.42 0.59,-0.94 0.65,-1.49c0.05,-0.56 -0.07,-1.11 -0.35,-1.59c-0.28,-0.48 -0.7,-0.86 -1.21,-1.09c-0.5,-0.22 -1.07,-0.28 -1.61,-0.17c-3.94,0.75 -6.38,5.79 -8.43,8.79c-1.53,2.21 -2.95,4.49 -4.29,6.78c-0.24,-3.31 -0.71,-6.66 -0.95,-9.78c-0.23,-3.11 -5.07,-3.3 -5.07,0c0.27,4.99 -0.25,9.99 -1.54,14.82c-0.5,0.25 -0.95,0.58 -1.34,0.98c-14.29,15 -32.18,26.07 -51.97,32.15c-0.99,0.34 -1.85,0.98 -2.43,1.85c-0.59,0.86 -0.87,1.9 -0.82,2.94c0.06,1.04 0.46,2.04 1.14,2.83c0.68,0.79 1.6,1.34 2.62,1.56c0.07,0.96 0.43,1.88 1.03,2.63c0.61,0.74 1.43,1.29 2.35,1.55c0.15,0.74 0.45,1.43 0.89,2.04c0.43,0.61 0.99,1.13 1.63,1.51l-3.34,1.45c-5.44,2.29 -3.03,11.27 2.48,8.99c20.75,-8.68 38.97,-22.48 52.96,-40.11c1.61,-1.54 3.19,-3.08 4.76,-4.69c2.44,-2.48 14.26,-14.34 11.34,-19.42c0.87,-1.78 2.56,-3.12 1.69,-5.4z" fill="#614335" id="svg_83"/>
  <path d="m584.69,193.8c-5.55,2.21 -9.84,14.18 -9.37,16.7l4.37,-2.2l0.79,-0.87c0.78,-4.71 2.2,-9.3 4.21,-13.63z" fill="#F4AC45" id="svg_84"/>
  <path d="m585.44,203.53c-0.3,-0.21 -0.63,-0.37 -0.98,-0.47l-0.36,-0.32c-2.16,-1.69 -5.51,0.52 -7.48,1.58c-2.52,1.33 -4.89,2.91 -7.08,4.73c-1,1.36 -1.71,2.92 -2.09,4.57c-0.83,1.97 -1.65,3.94 -2.6,5.87c-1.92,4.07 -4.09,8.02 -6.5,11.82c-4.7,7.36 -10.25,14.14 -16.53,20.21c-2.92,2.84 1.53,7.25 4.44,4.41l2.09,-2.09c0.44,0.29 0.95,0.45 1.48,0.45c0.52,0 1.04,-0.16 1.48,-0.45c0.51,-0.35 1,-0.75 1.45,-1.18l0.67,-0.55c0.19,0.48 0.49,0.91 0.88,1.24c0.39,0.34 0.86,0.57 1.36,0.68c0.51,0.11 1.03,0.09 1.53,-0.05c0.49,-0.14 0.94,-0.4 1.31,-0.77l2.13,-2.24c0.68,-0.26 1.23,-0.76 1.53,-1.42c0,0 0.32,4.29 0.4,4.18c3.42,-3.63 7.48,-13.68 10.9,-19.7c-0.02,-0.28 0.05,-0.56 0.2,-0.79c2.06,-3.58 2.98,-7.71 2.64,-11.82c-0.01,-2.83 0.24,-5.65 0.75,-8.43l5.59,-4.34c1.34,-1.02 2.79,-2.56 2.52,-3.94c0.16,-0.37 0.26,-0.77 0.27,-1.18z" fill="#F4AC45" id="svg_85"/>
  <path d="m606.27,282.49c-19.88,5.83 -23.31,3.62 -32.72,3.31c-9.41,-0.32 -19.41,-13.52 -19.41,-13.52c0,0 -2.36,-29.51 -19.96,-6.42c-13.11,17.26 -18.15,67.22 -19.69,91.41c6.94,4.77 15,7.65 23.39,8.35c5.4,0.91 10.86,1.37 16.34,1.38c3.37,-0.02 6.69,-0.75 9.76,-2.13l9.34,-43.34c15,0.82 29.84,-3.44 42.13,-12.09l-9.18,-26.95z" fill="#F4AC45" id="svg_86"/>
  <path d="m563.39,246.99c0,0 12.8,24.58 0,31.52c-12.79,6.93 -22.56,-4.53 -23.62,-7.49c-0.64,-3.26 -0.48,-6.62 0.47,-9.81c0.96,-3.18 2.67,-6.08 5,-8.45c2.33,-2.36 5.2,-4.13 8.36,-5.14c3.16,-1 6.53,-1.22 9.79,-0.63z" fill="#614335" id="svg_87"/>
  <path d="m564.5,243.33c-3.23,-2.06 -6.87,-3.39 -10.66,-3.91c-3.79,-0.52 -7.65,-0.21 -11.31,0.91c-6.45,1.18 -12.39,4.3 -17.02,8.94c-1.63,-1.1 -3.54,-1.74 -5.51,-1.85c-2.39,-0.18 -4.77,0.41 -6.81,1.66c-2.03,1.26 -3.62,3.14 -4.53,5.36c-0.74,2.08 -0.75,4.36 -0.04,6.45c0.71,2.1 2.12,3.89 3.98,5.09c2.89,1.51 6.25,1.83 9.37,0.87l0,0.59c0.43,4.65 -3.94,6.97 -5.67,10.91c-0.84,1.8 -1.07,3.81 -0.67,5.75c0.44,1.93 2.44,3.94 2.4,5.99c-0.35,1.46 -1.05,2.81 -2.04,3.94c-0.91,1.34 -1.65,2.78 -2.21,4.3c9.61,4.44 20.45,5.46 30.71,2.87c10.99,-1.92 21.06,-7.35 28.71,-15.48c-0.45,-1.01 -1.11,-1.91 -1.93,-2.64c-1.72,-1.16 -3.55,-2.12 -5.47,-2.88c-2.72,-1.57 0,-6.34 0,-8.9c0,-4.41 -3.39,-6.27 -7.05,-7.88c-2.64,-1.1 -2.76,-2.72 -2.8,-5.4c-0.24,-2.13 0.2,-4.28 1.26,-6.15c0.79,0.12 1.6,-0.05 2.28,-0.47c1.37,-0.82 2.84,-1.47 4.38,-1.93c0.76,-0.28 1.39,-0.84 1.75,-1.58c0.35,-0.74 0.4,-1.59 0.14,-2.36c0,-0.45 -0.12,-0.88 -0.34,-1.27c-0.22,-0.39 -0.54,-0.71 -0.92,-0.93z" fill="black" id="svg_88"/>
  <path d="m554.81,253.14c4.1,-0.9 8.07,-2.32 11.81,-4.22c0,-0.4 1.22,-15.76 -25.91,-10.4c-27.13,5.36 -14.25,37.78 -14.25,37.78" fill="black" id="svg_89"/>
  <path d="m812.05,287.92l189.86,111.82c1.95,1.16 3.55,2.83 4.63,4.83c1.08,2 1.61,4.25 1.51,6.52l-6.57,173.01c-0.06,2.14 -0.67,4.23 -1.77,6.07c-1.11,1.84 -2.68,3.36 -4.55,4.41c-1.87,1.05 -3.98,1.59 -6.12,1.58c-2.15,-0.02 -4.25,-0.59 -6.11,-1.66l-183.29,-106.94c-1.9,-1.11 -3.47,-2.71 -4.56,-4.62c-1.1,-1.92 -1.67,-4.08 -1.66,-6.29l0,-177.85c-0.02,-2.19 0.53,-4.35 1.61,-6.26c1.08,-1.91 2.65,-3.49 4.54,-4.6c1.89,-1.1 4.05,-1.69 6.24,-1.69c2.19,0 4.34,0.58 6.24,1.67z" id="svg_90" stroke="#54595D" stroke-dasharray="3.04 5.06" stroke-linecap="round" stroke-miterlimit="10"/>
  <path d="m929.11,239.19c-7.6,-3.51 -25.64,-15.41 -48.39,-4.46c-22.76,10.96 -44.34,31.21 -20.83,90.86c7.59,2.92 15.97,3 23.62,0.24c0,0 -4.84,-52.21 2.48,-58.27l76.47,42.51c0.85,9.94 -1.23,19.91 -5.96,28.68c-4.74,8.78 -11.93,15.98 -20.7,20.73l21.07,19.34c17.24,-0.28 55.12,-55.16 43.31,-94.17c-11.81,-39 -76.31,-47.47 -76.31,-47.47" fill="#00A7E2" id="svg_91"/>
  <path d="m929.11,239.19c-7.6,-3.51 -25.64,-15.41 -48.39,-4.46c-22.76,10.96 -44.34,31.21 -20.83,90.86c7.59,2.92 15.97,3 23.62,0.24c0,0 -4.84,-52.21 2.48,-58.27l76.47,42.51c0.85,9.94 -1.23,19.91 -5.96,28.68c-4.74,8.78 -11.93,15.98 -20.7,20.73l21.07,19.34c17.24,-0.28 55.12,-55.16 43.31,-94.17c-11.81,-39 -76.31,-47.47 -76.31,-47.47" fill="#CA054D" id="svg_92"/>
  <path d="m953.48,235.96c-5.2,5.75 -15.16,3.15 -21.73,1.65c-7.88,-1.81 -17.13,-6.66 -16.42,-16.15c0,-1.42 -2.13,-1.42 -2.25,0c-0.75,9.89 8.27,15.76 16.82,18c7.59,1.89 19.09,4.77 25.16,-1.93c0.94,-1.14 -0.63,-2.64 -1.58,-1.57z" fill="#92BFB1" id="svg_93"/>
  <path d="m910.96,215.47c0,0 0,48.42 17.75,51.57c19.69,3.47 30.48,-18.71 30.48,-18.71c0,0 2.52,-42.79 -16.89,-46.53c-19.41,-3.75 -30.75,7.48 -31.34,13.67z" fill="#EDB98A" id="svg_94"/>
  <path d="m945.33,243.52c0,0 4.69,-18.6 9.88,-12.45c5.2,6.15 -8.42,19.5 -8.42,19.5" fill="#D08B5B" id="svg_95"/>
  <path d="m950.17,195.77c0,0 17.33,1.85 22.37,15.76c5.04,13.91 -7.88,41.25 -17.21,45.55l11.26,-24.12l-0.55,-16.27l-15.87,-20.92z" fill="#202122" id="svg_96"/>
  <path d="m972.26,217.64c-1.41,-9.66 -7.87,-14.35 -16.18,-19.31l-2.09,-1.1c1.67,-1.31 3.02,-2.98 3.94,-4.89c0.11,-0.19 0.17,-0.41 0.17,-0.63c0,-0.23 -0.06,-0.44 -0.17,-0.63c-0.11,-0.2 -0.27,-0.36 -0.47,-0.47c-0.19,-0.11 -0.41,-0.16 -0.63,-0.16c-1.1,0.04 -2.17,0.32 -3.15,0.8c-0.98,0.48 -1.86,1.16 -2.56,2c-0.99,-1.99 -2.32,-3.8 -3.94,-5.32c-0.16,-0.15 -0.35,-0.26 -0.57,-0.31c-0.21,-0.06 -0.43,-0.06 -0.64,0c-0.22,0.05 -0.41,0.16 -0.57,0.31c-0.16,0.15 -0.28,0.34 -0.35,0.55c-0.37,0.93 -0.54,1.94 -0.49,2.95c0.06,1.01 0.33,1.99 0.81,2.88c-8.71,-1.82 -17.79,-0.42 -25.55,3.94c-2.88,1.62 -5.33,3.89 -7.17,6.62c-2.37,-0.25 -4.76,0.17 -6.89,1.22c-2.29,1.07 -4.17,2.85 -5.35,5.09c-1.18,2.23 -1.6,4.79 -1.19,7.28c0.8,2.57 2.58,4.73 4.95,6c2.37,1.28 5.15,1.57 7.73,0.82c2.69,-0.5 5.22,-1.68 7.32,-3.43c-1.57,2.64 -2.36,6.03 2.76,7.21c8.9,2.05 13.11,-3.27 13.66,1.18c0.48,3.63 5.48,5.64 9.06,5.72c0.28,0.55 0.95,2.01 1.73,3.94c1.79,-0.6 3.71,-0.7 5.55,-0.32c0.15,-0.16 0.32,-0.28 0.52,-0.36c0.2,-0.07 0.42,-0.1 0.63,-0.08c0.21,0.02 0.41,0.1 0.59,0.22c0.18,0.11 0.33,0.27 0.43,0.46c3.07,5.28 2.36,11.03 1.18,17.14c4.86,-4.11 8.88,-9.13 11.81,-14.78c4.08,-7.5 5.86,-16.04 5.12,-24.54zm-25.2,-25.97l0.36,0.55c-0.02,0.13 -0.02,0.27 0,0.4c0,0.39 0.31,0.82 0.47,1.22c-0.45,-0.64 -0.74,-1.39 -0.83,-2.17z" fill="#202122" id="svg_97"/>
  <path d="m1042.86,449.15l112.97,65.92c1.04,0.61 1.91,1.48 2.51,2.53c0.6,1.05 0.92,2.25 0.91,3.45c0.01,1.23 -0.32,2.43 -0.93,3.48c-0.61,1.06 -1.49,1.94 -2.55,2.55c-1.06,0.6 -2.26,0.92 -3.48,0.92c-1.22,-0.01 -2.42,-0.34 -3.47,-0.96l-112.93,-65.52c-1.05,-0.61 -1.92,-1.48 -2.53,-2.53c-0.61,-1.05 -0.93,-2.24 -0.93,-3.46l0,-0.39c0,-1.22 0.32,-2.42 0.93,-3.48c0.61,-1.06 1.49,-1.93 2.55,-2.54c1.06,-0.61 2.26,-0.93 3.48,-0.92c1.22,0 2.42,0.33 3.47,0.95z" fill="#92BFB1" id="svg_98"/>
  <path d="m1042.86,484.61l112.97,65.92c1.04,0.61 1.91,1.48 2.51,2.53c0.6,1.06 0.91,2.24 0.91,3.46c0,1.22 -0.32,2.42 -0.93,3.47c-0.61,1.06 -1.49,1.94 -2.55,2.55c-1.06,0.6 -2.26,0.92 -3.48,0.92c-1.22,-0.01 -2.42,-0.34 -3.47,-0.96l-112.93,-65.32c-1.05,-0.61 -1.92,-1.48 -2.53,-2.53c-0.61,-1.05 -0.93,-2.25 -0.93,-3.46l0,-0.39c-0.04,-1.24 0.26,-2.47 0.85,-3.55c0.6,-1.09 1.48,-1.99 2.54,-2.62c1.07,-0.64 2.28,-0.97 3.52,-0.97c1.24,-0.01 2.45,0.32 3.52,0.95z" fill="#92BFB1" id="svg_99"/>
  <path d="m1042.86,520.42l112.97,65.92c1.04,0.61 1.91,1.49 2.51,2.54c0.6,1.05 0.92,2.24 0.91,3.45c0.01,1.22 -0.32,2.42 -0.93,3.48c-0.61,1.06 -1.49,1.93 -2.55,2.54c-1.06,0.61 -2.26,0.93 -3.48,0.92c-1.22,0 -2.42,-0.33 -3.47,-0.95l-112.93,-65.52c-1.05,-0.61 -1.92,-1.48 -2.53,-2.53c-0.61,-1.06 -0.93,-2.25 -0.93,-3.46l0,-0.4c0,-1.22 0.32,-2.42 0.93,-3.48c0.61,-1.05 1.49,-1.93 2.55,-2.54c1.06,-0.61 2.26,-0.92 3.48,-0.92c1.22,0.01 2.42,0.34 3.47,0.95z" fill="#92BFB1" id="svg_100"/>
  <path d="m1042.86,556.04l112.97,65.92c1.04,0.61 1.91,1.49 2.51,2.54c0.6,1.05 0.92,2.24 0.91,3.45c0.01,1.22 -0.32,2.42 -0.93,3.48c-0.61,1.05 -1.49,1.93 -2.55,2.54c-1.06,0.61 -2.26,0.92 -3.48,0.92c-1.22,-0.01 -2.42,-0.34 -3.47,-0.95l-112.93,-65.49c-1.05,-0.6 -1.92,-1.48 -2.53,-2.53c-0.61,-1.05 -0.93,-2.24 -0.93,-3.45l0,-0.4c-0.01,-1.22 0.31,-2.43 0.91,-3.49c0.61,-1.06 1.49,-1.95 2.55,-2.56c1.06,-0.61 2.27,-0.93 3.49,-0.93c1.22,0 2.43,0.33 3.48,0.95z" fill="#92BFB1" id="svg_101"/>
  <path d="m759.28,325.91l0,114.1l-88.24,-50.59l0,-113.12l88.24,49.61z" fill="#72777D" id="svg_102"/>
  <path d="m681.24,389.42l0,27.89l22.49,-19.58l-22.49,-8.31z" fill="#72777D" id="svg_103"/>
  <path d="m1155.47,475.47c3.51,0 6.34,-3.09 6.34,-6.9c0,-3.8 -2.83,-6.89 -6.34,-6.89c-3.5,0 -6.34,3.09 -6.34,6.89c0,3.81 2.84,6.9 6.34,6.9z" fill="#CA054D" id="svg_104"/>
  <path d="m1135.24,465.11c3.5,0 6.34,-3.09 6.34,-6.9c0,-3.81 -2.84,-6.89 -6.34,-6.89c-3.5,0 -6.34,3.08 -6.34,6.89c0,3.81 2.84,6.9 6.34,6.9z" fill="#CA054D" id="svg_105"/>
  <path d="m1115,455.06c3.5,0 6.34,-3.09 6.34,-6.9c0,-3.8 -2.84,-6.89 -6.34,-6.89c-3.5,0 -6.34,3.09 -6.34,6.89c0,3.81 2.84,6.9 6.34,6.9z" fill="#CA054D" id="svg_106"/>
  <path d="m525.2,590.99c-2.91,-0.53 -5.62,-1.82 -7.88,-3.74c-1.4,-2.61 -1.97,-5.58 -1.65,-8.51c0,-2.63 0,-5.37 0,-8.24c-0.15,-0.12 -0.28,-0.28 -0.37,-0.46c-0.09,-0.17 -0.13,-0.37 -0.14,-0.56c-0.15,-2.23 -0.15,-4.47 0,-6.7l-11.26,-1.1c-1.95,7.06 -3.51,14.23 -4.69,21.47c0.32,2.21 11.03,16.86 16.5,17.85c5.47,0.98 20.59,-3.94 21.85,-5.87c-4.09,-1.23 -8.27,-2.52 -12.36,-4.14z" fill="#614335" id="svg_107"/>
  <path d="m603.08,550.96c-6.4,0.05 -12.79,0.64 -19.09,1.77c0,0 -2.17,-12.57 -1.85,-13.2l-16.03,1.11c0,0 -2.01,23.32 -2.01,26.39c0,5.64 7.01,7.45 8.55,7.22c1.1,-0.38 2.18,-0.83 3.22,-1.35c-0.58,-2.9 -0.88,-5.86 -0.9,-8.82c0,-1.34 0.35,-2.32 1.65,-2.8c3.08,-0.4 6.22,-0.12 9.18,0.83c2.87,0.55 5.71,1.22 8.58,1.73c4.45,-1.91 8.54,-4.58 12.09,-7.88c1.02,-3.11 2.32,-3.86 -3.39,-5z" fill="#614335" id="svg_108"/>
  <path d="m608.44,551.98l-0.4,-0.43c-1.22,-1.18 -4.45,-1.06 -5.94,-1.14c-6.11,0.04 -12.19,0.82 -18.11,2.32c0,0 14.53,-1.97 15.08,0.63c0.23,1.05 0.22,2.13 -0.03,3.17c-0.25,1.04 -0.74,2 -1.43,2.82c-6.06,5.4 -15.55,-0.55 -21.46,-3.11l-10.98,-4.73l-0.71,8.94c-0.38,4.09 -0.38,8.21 0,12.3c0.74,1.26 7.24,4.69 8.62,3.94c1.38,-0.75 5.63,-3.27 5.63,-3.27l-0.87,-10.8c0,0 9.06,3.94 13.35,2.84c3.27,-0.79 21.03,-8.43 17.25,-13.48z" fill="#CA054D" id="svg_109"/>
  <path d="m509.65,583.62c0,0 5.9,18.44 7.87,19.7c1.97,1.26 24.81,-6.03 21.42,-10.36c-2.16,-2.76 -15.75,-2.72 -17.05,-3.07c0,0 7.21,2.36 7.21,3.5c-2.68,2.38 -5.99,3.94 -9.53,4.5c-0.47,-0.87 -10.32,-17.03 -10.32,-17.03l-9.25,-3.27l-7.48,16.91l6.45,2.76c0,0 1.97,5.16 2.64,5.16c2.22,-3.02 4.21,-6.19 5.95,-9.5c0.42,2.34 1.18,4.61 2.24,6.74c0.91,0.67 8.43,6.85 11.82,2.13l-6.34,-7.14" fill="#CA054D" id="svg_110"/>
  <path d="m492.52,594.5l1.18,4.21l7.91,3.71l0,-7.92l-4.56,-1.58" fill="#202122" id="svg_111"/>
  <path d="m556.74,546.98c6.95,1.62 14.19,1.61 21.14,-0.04c6.94,-1.65 13.42,-4.88 18.9,-9.45c0.24,-23.64 2.44,-45.2 1.74,-68.92c-1.15,-38.73 -6.78,-76.75 -33.95,-106.97l-49.45,-7.6c-20.08,38.22 -24.18,213.03 -24.18,213.03c0,0 25.2,16.08 44.38,8.2l7.44,-145.78c0,0 13.11,15.52 15.47,24.19c1.74,6.54 -1.81,64.07 -1.49,93.34z" fill="#202122" id="svg_112"/>
  <path d="m347.42,495.72c48.21,0 87.29,-19.33 87.29,-43.18c0,-23.85 -39.08,-43.18 -87.29,-43.18c-48.21,0 -87.29,19.33 -87.29,43.18c0,23.85 39.08,43.18 87.29,43.18z" fill="#00A7E2" id="svg_113"/>
  <path d="m347.42,495.72c48.21,0 87.29,-19.33 87.29,-43.18c0,-23.85 -39.08,-43.18 -87.29,-43.18c-48.21,0 -87.29,19.33 -87.29,43.18c0,23.85 39.08,43.18 87.29,43.18z" fill="#202122" id="svg_114"/>
  <path d="m1267.3,868.33l-118.72,71.44c0,0 21.85,38.38 75.76,61.03l130.49,-73.81" fill="#C8CCD1" id="svg_115"/>
  <path d="m1326.17,930.3c36.14,0 65.44,-20.65 65.44,-46.13c0,-25.49 -29.3,-46.14 -65.44,-46.14c-36.15,0 -65.45,20.65 -65.45,46.14c0,25.48 29.3,46.13 65.45,46.13z" fill="#72777D" id="svg_116"/>
  <path d="m1326.12,877.03c27.08,0 49.03,-8.99 49.03,-20.09c0,-11.1 -21.95,-20.09 -49.03,-20.09c-27.07,0 -49.02,8.99 -49.02,20.09c0,11.1 21.95,20.09 49.02,20.09z" fill="#202122" id="svg_117"/>
  <path d="m1324.31,823.45c0,-9.06 -0.31,-18.12 -1.02,-27.15c-0.18,-2.33 -0.39,-4.67 -0.63,-7.01l-0.51,-4.61c-0.2,-1.34 -0.71,-4.85 -0.71,-4.69c-0.31,-1.84 -0.63,-3.68 -0.94,-5.51c-5.36,-30.75 -17.3,-59.97 -35.01,-85.66c-6.65,15.87 -9.96,32.95 -9.72,50.16c0,4.96 0.39,9.92 0.82,14.89c0,1.34 0,1.89 0,2.09c0,0.19 0,-0.32 0.2,0.82c0.39,2.45 0.87,4.89 1.34,7.29c1.97,9.24 4.6,18.33 7.87,27.19c2.91,8.14 6.45,16.05 10.59,23.64c4.45,8.55 9.3,16.9 14.49,25.02c3.94,6.34 7.88,12.06 11.82,17.45c0.86,-11.26 1.41,-22.61 1.41,-33.92zm-25.75,-101.85c0.18,-1.17 0.1,-2.37 -0.23,-3.51c1.26,1.29 2.48,2.6 3.66,3.94c-1.11,-0.32 -2.27,-0.46 -3.43,-0.43z" fill="#CA054D" id="svg_118"/>
  <path d="m1341.21,830.42c4.92,-7.6 9.52,-15.4 13.82,-23.4c1.1,-2.08 2.19,-4.16 3.26,-6.26l2.05,-4.18l1.93,-4.33c0.74,-1.71 1.46,-3.43 2.17,-5.17c12.09,-28.75 17.83,-59.79 16.81,-90.97c-14.23,9.73 -26.29,22.3 -35.44,36.92c-2.64,4.21 -5.04,8.55 -7.36,12.96l-0.98,1.85c0,0 0,-0.23 -0.28,0.83c-0.98,2.28 -1.93,4.57 -2.8,6.85c-3.35,8.82 -6.08,17.87 -8.15,27.07c-1.98,8.44 -3.29,17.01 -3.93,25.65c-0.91,9.62 -1.3,19.27 -1.34,28.88c0,7.53 0,14.42 0.47,21.04c7.05,-8.94 13.7,-18.2 19.77,-27.74zm33.31,-99.6c0.78,-0.89 1.36,-1.94 1.69,-3.07c0.37,1.76 0.68,3.53 0.95,5.32c-0.76,-0.88 -1.65,-1.64 -2.64,-2.25z" fill="#CA054D" id="svg_119"/>
  <path d="m1340.85,853c5.09,-2.63 10.09,-5.35 15,-8.16l3.94,-2.32l2.44,-1.58l2.44,-1.69l2.84,-2.09c15.81,-11.61 28.92,-26.5 38.43,-43.65c-10.79,0.69 -21.33,3.6 -30.95,8.55c-2.8,1.41 -5.47,2.99 -8.15,4.6l-1.14,0.68c0,0 0,0 -0.4,0.35c-1.26,0.91 -2.52,1.85 -3.74,2.8c-4.66,3.62 -9.05,7.57 -13.15,11.82c-3.79,3.91 -7.26,8.11 -10.39,12.57c-3.59,4.88 -6.93,9.96 -10.04,15.16c-2.45,3.94 -4.57,7.88 -6.54,11.51c6.5,-2.64 12.99,-5.36 19.41,-8.55zm50.13,-42.99c0.71,-0.22 1.37,-0.59 1.93,-1.1c-0.37,1.08 -0.77,2.14 -1.19,3.19c-0.13,-0.73 -0.39,-1.43 -0.74,-2.09z" fill="#92BFB1" id="svg_120"/>
  <path d="m1324.31,823.45c0,-9.06 -0.31,-18.12 -1.02,-27.15c-0.18,-2.33 -0.39,-4.67 -0.63,-7.01l-0.51,-4.61c-0.2,-1.34 -0.71,-4.85 -0.71,-4.69c-0.31,-1.84 -0.63,-3.68 -0.94,-5.51c-5.36,-30.75 -17.3,-59.97 -35.01,-85.66c-6.65,15.87 -9.96,32.95 -9.72,50.16c0,4.96 0.39,9.92 0.82,14.89c0,1.34 0,1.89 0,2.09c0,0.19 0,-0.32 0.2,0.82c0.39,2.45 0.87,4.89 1.34,7.29c1.97,9.24 4.6,18.33 7.87,27.19c2.91,8.14 6.45,16.05 10.59,23.64c4.45,8.55 9.3,16.9 14.49,25.02c3.94,6.34 7.88,12.06 11.82,17.45c0.86,-11.26 1.41,-22.61 1.41,-33.92zm-25.75,-101.85c0.18,-1.17 0.1,-2.37 -0.23,-3.51c1.26,1.29 2.48,2.6 3.66,3.94c-1.11,-0.32 -2.27,-0.46 -3.43,-0.43z" fill="#92BFB1" id="svg_121"/>
  <path d="m1341.21,830.42c4.92,-7.6 9.52,-15.4 13.82,-23.4c1.1,-2.08 2.19,-4.16 3.26,-6.26l2.05,-4.18l1.93,-4.33c0.74,-1.71 1.46,-3.43 2.17,-5.17c12.09,-28.75 17.83,-59.79 16.81,-90.97c-14.23,9.73 -26.29,22.3 -35.44,36.92c-2.64,4.21 -5.04,8.55 -7.36,12.96l-0.98,1.85c0,0 0,-0.23 -0.28,0.83c-0.98,2.28 -1.93,4.57 -2.8,6.85c-3.35,8.82 -6.08,17.87 -8.15,27.07c-1.98,8.44 -3.29,17.01 -3.93,25.65c-0.91,9.62 -1.3,19.27 -1.34,28.88c0,7.53 0,14.42 0.47,21.04c7.05,-8.94 13.7,-18.2 19.77,-27.74zm33.31,-99.6c0.78,-0.89 1.36,-1.94 1.69,-3.07c0.37,1.76 0.68,3.53 0.95,5.32c-0.76,-0.88 -1.65,-1.64 -2.64,-2.25z" fill="#92BFB1" id="svg_122"/>
  <path d="m1340.85,853c5.09,-2.63 10.09,-5.35 15,-8.16l3.94,-2.32l2.44,-1.58l2.44,-1.69l2.84,-2.09c15.81,-11.61 28.92,-26.5 38.43,-43.65c-10.79,0.69 -21.33,3.6 -30.95,8.55c-2.8,1.41 -5.47,2.99 -8.15,4.6l-1.14,0.68c0,0 0,0 -0.4,0.35c-1.26,0.91 -2.52,1.85 -3.74,2.8c-4.66,3.62 -9.05,7.57 -13.15,11.82c-3.79,3.91 -7.26,8.11 -10.39,12.57c-3.59,4.88 -6.93,9.96 -10.04,15.16c-2.45,3.94 -4.57,7.88 -6.54,11.51c6.5,-2.64 12.99,-5.36 19.41,-8.55zm50.13,-42.99c0.71,-0.22 1.37,-0.59 1.93,-1.1c-0.37,1.08 -0.77,2.14 -1.19,3.19c-0.13,-0.73 -0.39,-1.43 -0.74,-2.09z" fill="#92BFB1" id="svg_123"/>
 </g>

</svg>